<svg xmlns="http://www.w3.org/2000/svg" style="display: none;">
  <!-- 图书馆图标 -->
  <symbol id="icon-library" viewBox="0 0 24 24">
    <path fill="currentColor" d="M12 3L2 8v13h20V8L12 3zm0 2.5L18.5 8H5.5L12 5.5zM4 9h16v10H4V9zm2 2v6h2v-6H6zm4 0v6h2v-6h-2zm4 0v6h2v-6h-2z"/>
  </symbol>
  
  <!-- 课表图标 -->
  <symbol id="icon-schedule" viewBox="0 0 24 24">
    <path fill="currentColor" d="M19 3h-1V1h-2v2H8V1H6v2H5c-1.11 0-1.99.9-1.99 2L3 19c0 1.1.89 2 2 2h14c1.1 0 2-.9 2-2V5c0-1.1-.9-2-2-2zm0 16H5V8h14v11zM9 10H7v2h2v-2zm4 0h-2v2h2v-2zm4 0h-2v2h2v-2zm-8 4H7v2h2v-2zm4 0h-2v2h2v-2zm4 0h-2v2h2v-2z"/>
  </symbol>
  
  <!-- 校园地图图标 -->
  <symbol id="icon-map" viewBox="0 0 24 24">
    <path fill="currentColor" d="M20.5 3l-6 1.5-6-1.5-5.5 1.4v16.1l5.5-1.4 6 1.5 6-1.5v-16zm-6.5 15.5l-6-1.5v-13l6 1.5v13zm1-13l5-.5v12.5l-5 .5v-12.5z"/>
    <circle fill="currentColor" cx="12" cy="10" r="2" opacity="0.5"/>
  </symbol>
  
  <!-- 成绩图标 -->
  <symbol id="icon-grades" viewBox="0 0 24 24">
    <path fill="currentColor" d="M19 3H5c-1.1 0-2 .9-2 2v14c0 1.1.9 2 2 2h14c1.1 0 2-.9 2-2V5c0-1.1-.9-2-2-2zm0 16H5V5h14v14z"/>
    <path fill="currentColor" d="M7 12h2v5H7zm4-3h2v8h-2zm4 6h2v2h-2z"/>
    <path fill="currentColor" d="M7 7h10v2H7z" opacity="0.5"/>
  </symbol>
  
  <!-- AI课程图标 -->
  <symbol id="icon-ai-course" viewBox="0 0 24 24">
    <path fill="currentColor" d="M12 2C6.48 2 2 6.48 2 12s4.48 10 10 10 10-4.48 10-10S17.52 2 12 2zm0 18c-4.41 0-8-3.59-8-8s3.59-8 8-8 8 3.59 8 8-3.59 8-8 8z"/>
    <path fill="currentColor" d="M12 6c-3.31 0-6 2.69-6 6s2.69 6 6 6 6-2.69 6-6-2.69-6-6-6zm0 10c-2.21 0-4-1.79-4-4s1.79-4 4-4 4 1.79 4 4-1.79 4-4 4z"/>
    <circle fill="currentColor" cx="12" cy="12" r="2"/>
    <path fill="currentColor" d="M12 4v2m0 12v2M4 12h2m12 0h2" opacity="0.5"/>
  </symbol>
  
  <!-- 劲牛雕塑图标 -->
  <symbol id="icon-bull" viewBox="0 0 24 24">
    <path fill="currentColor" d="M16 6c-1.1 0-2 .9-2 2 0 .74.4 1.38 1 1.72v.78c0 1.1-.9 2-2 2h-2c-1.1 0-2-.9-2-2v-.78c.6-.34 1-.98 1-1.72 0-1.1-.9-2-2-2s-2 .9-2 2c0 .74.4 1.38 1 1.72v.78c0 2.21 1.79 4 4 4h2c2.21 0 4-1.79 4-4v-.78c.6-.34 1-.98 1-1.72 0-1.1-.9-2-2-2z"/>
    <path fill="currentColor" d="M6 14c-1.1 0-2 .9-2 2v4h16v-4c0-1.1-.9-2-2-2H6z"/>
    <path fill="currentColor" d="M8 4c0-1.1.9-2 2-2h4c1.1 0 2 .9 2 2v4h-8V4z" opacity="0.5"/>
  </symbol>
  
  <!-- 校门图标 -->
  <symbol id="icon-gate" viewBox="0 0 24 24">
    <rect fill="currentColor" x="2" y="10" width="4" height="12" rx="1"/>
    <rect fill="currentColor" x="18" y="10" width="4" height="12" rx="1"/>
    <rect fill="currentColor" x="2" y="6" width="20" height="6" rx="1"/>
    <rect fill="currentColor" x="8" y="12" width="8" height="10" rx="1" opacity="0.5"/>
    <path fill="currentColor" d="M12 2L8 6h8l-4-4z" opacity="0.7"/>
  </symbol>
  
  <!-- 松花江图标 -->
  <symbol id="icon-river" viewBox="0 0 24 24">
    <path fill="currentColor" d="M2 12c2-2 4-2 6 0s4 2 6 0 4-2 6 0 4 2 6 0v4c-2 2-4 2-6 0s-4-2-6 0-4 2-6 0-4-2-6 0v-4z" opacity="0.6"/>
    <path fill="currentColor" d="M2 6c2-2 4-2 6 0s4 2 6 0 4-2 6 0 4 2 6 0v4c-2 2-4 2-6 0s-4-2-6 0-4 2-6 0-4-2-6 0V6z"/>
  </symbol>
</svg>